if (_typeface_js && _typeface_js.loadFace) _typeface_js.loadFace({"glyphs":{"S":{"x_min":81.140625,"x_max":646,"ha":750,"o":"m 646 238 b 392 516 646 419 633 455 b 213 695 213 562 213 567 b 388 832 213 802 240 832 b 621 806 463 832 549 823 l 631 907 b 386 938 558 927 464 938 b 96 699 161 938 96 860 b 341 415 96 508 121 465 b 528 235 527 372 528 360 b 353 91 528 130 499 91 b 100 131 270 91 183 105 l 81 34 b 350 -13 158 2 263 -13 b 646 238 599 -13 646 77 "},"/":{"x_min":81.671875,"x_max":525.390625,"ha":619,"o":"m 525 938 l 416 938 l 81 -162 l 189 -162 l 525 938 "},"K":{"x_min":115.6875,"x_max":752.703125,"ha":817,"o":"m 232 924 l 115 924 l 115 0 l 232 0 l 232 924 m 725 924 l 588 924 l 261 470 l 612 0 l 752 0 l 393 470 l 725 924 "},"7":{"x_min":34.03125,"x_max":574.390625,"ha":611,"o":"m 34 793 l 457 793 l 96 0 l 212 0 l 574 798 l 574 896 l 34 896 l 34 793 "},"d":{"x_min":84.390625,"x_max":602.96875,"ha":726,"o":"m 84 193 b 277 -13 84 56 147 -13 b 496 61 364 -13 442 16 l 506 0 l 602 0 l 602 968 l 488 951 l 488 669 b 299 689 435 680 357 689 b 84 469 144 689 84 603 l 84 193 m 488 169 b 300 88 439 125 366 88 b 198 193 220 88 198 123 l 198 469 b 306 587 198 551 230 587 b 488 566 352 587 427 578 l 488 169 "},",":{"x_min":95.28125,"x_max":230.03125,"ha":353,"o":"m 112 0 l 152 0 l 95 -140 l 148 -167 l 230 0 l 230 159 l 112 159 l 112 0 "},"Y":{"x_min":13.609375,"x_max":732.28125,"ha":761,"o":"m 372 408 l 136 924 l 13 924 l 314 279 l 314 0 l 431 0 l 431 279 l 732 924 l 609 924 l 372 408 "},"E":{"x_min":115.6875,"x_max":650.609375,"ha":750,"o":"m 115 0 l 650 0 l 650 106 l 232 106 l 232 420 l 619 420 l 619 527 l 232 527 l 232 817 l 649 817 l 649 924 l 115 924 l 115 0 "},"y":{"x_min":10.890625,"x_max":601.609375,"ha":622,"o":"m 181 -273 l 288 -273 l 382 0 l 601 676 l 488 676 l 304 93 l 123 676 l 10 676 l 225 0 l 273 0 l 181 -273 "},"≈":{"x_min":102.078125,"x_max":624.75,"ha":721,"o":"m 363 173 b 469 142 398 152 431 142 b 624 208 525 142 589 176 l 581 280 b 476 240 547 255 521 240 b 363 276 431 240 402 254 b 257 307 330 294 295 307 b 102 241 201 307 137 273 l 145 169 b 250 209 179 194 205 209 b 363 173 295 209 330 193 m 363 394 b 469 363 398 373 431 363 b 624 429 525 363 589 397 l 581 501 b 476 461 547 476 521 461 b 363 497 431 461 402 475 b 257 528 330 515 295 528 b 102 462 201 528 137 494 l 145 390 b 250 430 179 415 205 430 b 363 394 295 430 330 414 "},"\"":{"x_min":95.28125,"x_max":415.140625,"ha":521,"o":"m 189 612 l 189 952 l 95 952 l 95 612 l 189 612 m 415 612 l 415 952 l 321 952 l 321 612 l 415 612 "},"‹":{"x_min":54.4375,"x_max":306.25,"ha":403,"o":"m 227 70 l 306 122 l 167 338 l 306 553 l 227 606 l 54 338 l 227 70 "},"„":{"x_min":95.28125,"x_max":474.03125,"ha":601,"o":"m 112 0 l 152 0 l 95 -140 l 148 -167 l 230 0 l 230 159 l 112 159 l 112 0 m 356 0 l 396 0 l 339 -140 l 392 -167 l 474 0 l 474 159 l 356 159 l 356 0 "},"g":{"x_min":61.03125,"x_max":622.1875,"ha":681,"o":"m 622 675 l 431 675 b 319 689 400 685 353 689 b 61 457 130 689 61 605 l 61 427 b 153 235 61 338 91 271 b 91 116 118 208 91 166 b 220 -7 91 54 122 1 b 396 -23 298 -13 322 -16 b 494 -97 473 -30 494 -40 b 309 -191 494 -168 477 -191 b 86 -163 242 -191 156 -180 l 70 -255 b 311 -287 145 -276 250 -287 b 601 -91 551 -287 601 -238 b 435 70 601 11 555 58 b 247 90 352 79 317 83 b 204 128 217 92 204 102 b 251 201 204 158 228 181 b 320 197 272 198 295 197 b 580 427 492 197 580 281 l 580 457 b 543 592 578 510 567 557 l 622 607 l 622 675 m 471 456 l 471 427 b 320 292 471 338 428 292 b 168 427 211 292 168 324 l 168 456 b 320 594 168 556 209 594 b 471 456 430 594 471 555 "},"–":{"x_min":81.671875,"x_max":579.828125,"ha":675,"o":"m 81 338 l 579 338 l 579 434 l 81 434 l 81 338 "},"e":{"x_min":74.96875,"x_max":584.03125,"ha":668,"o":"m 189 235 l 189 292 l 584 292 l 584 434 b 334 689 584 574 530 689 b 74 437 137 689 74 577 l 74 234 b 337 -13 74 81 141 -13 b 571 24 420 -13 509 1 l 556 117 b 347 86 484 98 412 86 b 189 235 217 86 189 129 m 189 445 b 334 592 189 539 227 592 b 473 445 442 592 473 539 l 473 390 l 189 390 l 189 445 "},"J":{"x_min":-12.25,"x_max":232.75,"ha":356,"o":"m 115 924 l 115 0 b -12 -190 115 -64 112 -68 l 61 -275 b 232 -4 217 -126 232 -113 l 232 924 l 115 924 "},"|":{"x_min":136.109375,"x_max":213.6875,"ha":357,"o":"m 213 1096 l 136 1096 l 136 -291 l 213 -291 l 213 1096 "},"∆":{"x_min":68.0625,"x_max":887.453125,"ha":975,"o":"m 537 924 l 417 924 l 68 0 l 887 0 l 537 924 m 477 809 l 732 95 l 221 95 l 477 809 "},"≥":{"x_min":95.28125,"x_max":639.71875,"ha":750,"o":"m 639 89 l 95 89 l 95 0 l 639 0 l 639 89 m 509 460 l 119 265 l 159 185 l 620 421 l 620 497 l 159 731 l 119 650 l 509 460 "},"^":{"x_min":61.25,"x_max":564.859375,"ha":639,"o":"m 564 566 l 362 951 l 264 951 l 61 566 l 142 523 l 313 850 l 483 523 l 564 566 "},"q":{"x_min":78.9375,"x_max":597.53125,"ha":721,"o":"m 78 197 b 273 -14 78 67 136 -14 b 483 33 357 -14 436 8 l 483 -291 l 597 -274 l 597 663 b 360 689 521 681 421 689 b 78 437 133 689 78 591 l 78 197 m 483 140 b 300 88 438 118 359 88 b 193 192 223 88 193 123 l 193 441 b 352 587 193 531 217 587 b 483 577 393 587 438 584 l 483 140 "},"b":{"x_min":108.890625,"x_max":627.46875,"ha":721,"o":"m 627 478 b 432 689 627 607 570 689 b 223 642 348 689 269 667 l 223 968 l 108 951 l 108 12 b 345 -13 185 -5 284 -13 b 627 238 573 -13 627 84 l 627 478 m 223 535 b 405 587 268 557 347 587 b 513 483 483 587 513 552 l 513 234 b 353 88 513 144 488 88 b 223 98 313 88 268 91 l 223 535 "},"D":{"x_min":115.6875,"x_max":724.109375,"ha":829,"o":"m 115 924 l 115 0 l 432 0 b 724 265 654 0 724 117 l 724 659 b 432 924 724 806 654 924 l 115 924 m 232 817 l 428 817 b 607 651 566 817 607 759 l 607 273 b 428 106 607 165 566 106 l 232 106 l 232 817 "},"z":{"x_min":81.671875,"x_max":549.890625,"ha":638,"o":"m 88 581 l 419 581 l 81 94 l 81 0 l 549 0 l 549 94 l 206 94 l 544 581 l 545 676 l 88 676 l 88 581 "},"w":{"x_min":24.5,"x_max":922.828125,"ha":967,"o":"m 781 0 l 922 676 l 813 676 l 703 115 l 543 676 l 404 676 l 243 115 l 133 676 l 24 676 l 166 0 l 313 0 l 473 573 l 634 0 l 781 0 "},"$":{"x_min":81.109375,"x_max":616.03125,"ha":719,"o":"m 398 -156 l 398 -11 b 616 231 561 2 616 69 b 365 503 616 395 588 430 b 210 669 222 551 210 569 b 371 807 210 789 245 807 b 591 785 435 807 533 796 l 602 884 b 426 907 550 898 488 905 l 426 1053 l 326 1053 l 326 909 b 96 671 149 899 96 827 b 327 405 96 510 123 471 b 501 230 494 351 501 335 b 339 88 501 123 484 88 b 96 127 270 88 176 102 l 81 33 b 297 -12 147 8 228 -8 l 297 -156 l 398 -156 "},"∫":{"x_min":40.828125,"x_max":455.96875,"ha":535,"o":"m 300 -134 l 300 780 b 355 838 300 821 315 838 b 438 823 381 838 413 831 l 455 913 b 336 938 424 927 378 938 b 186 785 240 938 186 888 l 186 -136 b 130 -190 186 -170 176 -190 b 55 -179 99 -190 81 -187 l 40 -265 b 151 -287 72 -279 110 -287 b 300 -134 254 -287 300 -237 "},"\\":{"x_min":81.671875,"x_max":525.390625,"ha":613,"o":"m 417 -162 l 525 -162 l 190 938 l 81 938 l 417 -162 "},"’":{"x_min":102.28125,"x_max":237.03125,"ha":332,"o":"m 119 792 l 159 792 l 102 652 l 155 626 l 237 792 l 237 952 l 119 952 l 119 792 "},"~":{"x_min":61.25,"x_max":619.3125,"ha":694,"o":"m 547 478 b 447 372 526 425 507 372 b 235 475 379 372 326 475 b 61 313 144 475 98 410 l 133 277 b 234 382 159 339 179 382 b 446 281 299 382 348 281 b 619 444 544 281 592 361 l 547 478 "},"-":{"x_min":81.671875,"x_max":421.9375,"ha":514,"o":"m 81 338 l 421 338 l 421 434 l 81 434 l 81 338 "},"Q":{"x_min":95.28125,"x_max":751.328125,"ha":864,"o":"m 751 657 b 423 937 751 811 657 937 b 95 657 189 937 95 811 l 95 265 b 392 -13 95 118 181 -1 l 485 -231 l 590 -182 l 514 -6 b 751 265 681 21 751 134 l 751 657 m 212 654 b 423 832 212 768 280 832 b 634 654 566 832 634 768 l 634 268 b 423 91 634 154 566 91 b 212 268 280 91 212 154 l 212 654 "},"M":{"x_min":102.078125,"x_max":984.078125,"ha":1108,"o":"m 464 119 l 622 119 l 853 749 l 871 0 l 984 0 l 952 924 l 804 924 l 543 209 l 281 924 l 133 924 l 102 0 l 215 0 l 232 749 l 464 119 "},"C":{"x_min":95.28125,"x_max":634.28125,"ha":717,"o":"m 212 659 b 409 830 212 788 261 830 b 622 810 464 830 552 823 l 634 913 b 405 938 568 928 473 938 b 95 666 183 938 95 841 l 95 258 b 405 -13 95 83 183 -13 b 634 11 473 -13 568 -4 l 622 113 b 409 94 552 101 464 94 b 212 265 261 94 212 136 l 212 659 "},"[":{"x_min":129.3125,"x_max":393.359375,"ha":429,"o":"m 393 -174 l 393 -74 l 243 -74 l 243 996 l 393 996 l 393 1096 l 129 1096 l 129 -174 l 393 -174 "},"L":{"x_min":115.6875,"x_max":626.109375,"ha":694,"o":"m 232 924 l 115 924 l 115 0 l 626 0 l 626 106 l 232 106 l 232 924 "},"!":{"x_min":122.5,"x_max":239.5625,"ha":369,"o":"m 216 263 l 238 499 l 238 952 l 123 952 l 123 499 l 145 263 l 216 263 m 122 0 l 239 0 l 239 159 l 122 159 l 122 0 "}," ":{"x_min":0,"x_max":0,"ha":299},"{":{"x_min":74.46875,"x_max":412.015625,"ha":435,"o":"m 105 402 b 162 344 150 402 162 381 l 162 -13 b 323 -197 162 -142 199 -197 l 412 -197 l 412 -98 l 330 -98 b 277 -43 292 -98 277 -83 l 277 291 b 186 449 277 333 284 444 b 277 607 284 455 277 566 l 277 942 b 330 998 277 982 292 998 l 412 998 l 412 1096 l 323 1096 b 162 913 199 1096 162 1042 l 162 555 b 105 496 162 517 150 496 l 74 496 l 74 402 l 105 402 "},"X":{"x_min":40.828125,"x_max":760.859375,"ha":818,"o":"m 40 0 l 166 0 l 400 374 l 635 0 l 760 0 l 465 469 l 751 924 l 626 924 l 400 563 l 175 924 l 50 924 l 334 469 l 40 0 "},"∑":{"x_min":102.078125,"x_max":641.078125,"ha":758,"o":"m 103 -138 l 641 -138 l 641 -33 l 240 -33 l 555 392 l 240 818 l 634 818 l 634 924 l 102 924 l 102 818 l 416 392 l 103 -33 l 103 -138 "},"P":{"x_min":115.6875,"x_max":706.421875,"ha":774,"o":"m 115 0 l 232 0 l 232 330 l 443 330 b 706 559 638 330 706 416 l 706 696 b 443 924 706 838 638 924 l 115 924 l 115 0 m 589 695 l 589 559 b 439 437 589 469 551 437 l 232 437 l 232 817 l 439 817 b 589 695 551 817 589 787 "},"%":{"x_min":68.0625,"x_max":1069.828125,"ha":1168,"o":"m 790 903 l 709 938 l 343 21 l 423 -14 l 790 903 m 468 621 l 468 749 b 268 938 468 863 420 938 b 68 749 115 938 68 863 l 68 621 b 268 432 68 507 115 432 b 468 621 420 432 468 507 m 160 753 b 268 854 160 820 186 854 b 375 753 349 854 375 820 l 375 617 b 268 516 375 550 349 516 b 160 617 186 516 160 550 l 160 753 m 1069 174 l 1069 302 b 869 491 1069 416 1022 491 b 669 302 717 491 669 416 l 669 174 b 869 -14 669 60 717 -14 b 1069 174 1022 -14 1069 60 m 762 306 b 869 407 762 373 788 407 b 977 306 951 407 977 373 l 977 170 b 869 69 977 103 951 69 b 762 170 788 69 762 103 l 762 306 "},"#":{"x_min":81.671875,"x_max":887.453125,"ha":982,"o":"m 865 241 l 871 328 l 692 328 l 706 587 l 882 587 l 887 674 l 711 674 l 724 898 l 631 898 l 619 674 l 375 674 l 387 898 l 295 898 l 283 674 l 102 674 l 98 587 l 277 587 l 264 328 l 87 328 l 81 241 l 257 241 l 242 1 l 334 1 l 349 241 l 596 241 l 585 1 l 677 1 l 688 241 l 865 241 m 370 587 l 613 587 l 600 328 l 356 328 l 370 587 "},"∏":{"x_min":74.859375,"x_max":1023.5625,"ha":1121,"o":"m 1023 818 l 1023 924 l 74 924 l 74 818 l 265 818 l 265 -138 l 379 -138 l 379 818 l 718 818 l 718 -138 l 833 -138 l 833 818 l 1023 818 "},"_":{"x_min":-1.359375,"x_max":586.640625,"ha":597,"o":"m 586 -68 l 586 -13 l -1 -13 l -1 -68 l 586 -68 "},"+":{"x_min":81.671875,"x_max":634.28125,"ha":731,"o":"m 81 288 l 307 288 l 307 54 l 408 54 l 408 288 l 634 288 l 634 385 l 408 385 l 408 620 l 307 620 l 307 385 l 81 385 l 81 288 "},"":{"x_min":149.71875,"x_max":1056.21875,"ha":1203,"o":"m 1056 462 l 1056 924 l 149 924 l 149 0 l 602 0 l 602 462 l 1056 462 "},"‚":{"x_min":95.28125,"x_max":230.03125,"ha":353,"o":"m 112 0 l 152 0 l 95 -140 l 148 -167 l 230 0 l 230 159 l 112 159 l 112 0 "},")":{"x_min":27.21875,"x_max":318.5,"ha":422,"o":"m 27 1001 b 204 421 156 796 204 624 b 27 -158 204 219 156 46 l 108 -214 b 318 421 243 -29 318 177 b 108 1057 318 666 243 872 l 27 1001 "},"'":{"x_min":95.28125,"x_max":189.1875,"ha":290,"o":"m 189 612 l 189 952 l 95 952 l 95 612 l 189 612 "},"}":{"x_min":13.984375,"x_max":351.53125,"ha":435,"o":"m 351 402 l 351 496 l 320 496 b 263 555 275 496 263 517 l 263 913 b 102 1096 263 1042 226 1096 l 13 1096 l 13 998 l 95 998 b 148 942 133 998 148 982 l 148 607 b 239 449 148 566 141 455 b 148 291 141 444 148 333 l 148 -43 b 95 -98 148 -83 133 -98 l 13 -98 l 13 -197 l 102 -197 b 263 -13 226 -197 263 -142 l 263 344 b 320 402 263 381 275 402 l 351 402 "},"‰":{"x_min":68.0625,"x_max":1574.8125,"ha":1683,"o":"m 790 903 l 709 938 l 343 21 l 423 -14 l 790 903 m 468 621 l 468 749 b 268 938 468 863 420 938 b 68 749 115 938 68 863 l 68 621 b 268 432 68 507 115 432 b 468 621 420 432 468 507 m 160 753 b 268 854 160 820 186 854 b 375 753 349 854 375 820 l 375 617 b 268 516 375 550 349 516 b 160 617 186 516 160 550 l 160 753 m 1069 174 l 1069 302 b 869 491 1069 416 1022 491 b 669 302 717 491 669 416 l 669 174 b 869 -14 669 60 717 -14 b 1069 174 1022 -14 1069 60 m 762 306 b 869 407 762 373 788 407 b 977 306 951 407 977 373 l 977 170 b 869 69 977 103 951 69 b 762 170 788 69 762 103 l 762 306 m 1574 174 l 1574 302 b 1374 491 1574 416 1527 491 b 1174 302 1222 491 1174 416 l 1174 174 b 1374 -14 1174 60 1222 -14 b 1574 174 1527 -14 1574 60 m 1267 306 b 1374 407 1267 373 1293 407 b 1482 306 1456 407 1482 373 l 1482 170 b 1374 69 1482 103 1456 69 b 1267 170 1293 69 1267 103 l 1267 306 "},"a":{"x_min":83.921875,"x_max":578,"ha":685,"o":"m 578 470 b 326 689 578 614 515 689 b 108 660 255 689 171 677 l 120 567 b 319 589 172 578 255 589 b 463 476 426 589 463 560 l 463 370 l 286 370 b 83 180 153 370 83 320 b 259 -13 83 61 135 -13 b 474 49 339 -13 416 8 l 481 0 l 578 0 l 578 470 m 463 141 b 292 85 413 108 349 85 b 198 183 210 85 198 113 b 294 273 198 251 224 273 l 463 273 l 463 141 "},"T":{"x_min":27.21875,"x_max":686,"ha":728,"o":"m 298 0 l 415 0 l 415 817 l 686 817 l 686 924 l 27 924 l 27 817 l 298 817 l 298 0 "},"—":{"x_min":81.671875,"x_max":751.328125,"ha":850,"o":"m 81 338 l 751 338 l 751 434 l 81 434 l 81 338 "},"=":{"x_min":95.28125,"x_max":597.53125,"ha":707,"o":"m 95 415 l 597 415 l 597 501 l 95 501 l 95 415 m 95 167 l 597 167 l 597 254 l 95 254 l 95 167 "},"N":{"x_min":115.6875,"x_max":782.640625,"ha":917,"o":"m 622 0 l 782 0 l 782 924 l 671 924 l 671 133 l 276 924 l 115 924 l 115 0 l 227 0 l 227 787 l 622 0 "},"⁄":{"x_min":6.8125,"x_max":460.0625,"ha":476,"o":"m 460 910 l 385 942 l 6 -14 l 83 -46 l 460 910 "},"2":{"x_min":68.0625,"x_max":573.03125,"ha":675,"o":"m 68 0 l 573 0 l 573 102 l 209 102 b 409 341 298 204 311 222 b 564 663 545 506 564 553 b 564 694 564 669 564 688 b 299 910 564 835 509 910 b 72 875 220 910 130 893 l 88 775 b 289 806 140 791 225 806 b 450 692 427 806 450 780 l 450 652 b 302 383 450 587 441 551 b 68 106 194 254 168 223 l 68 0 "},"j":{"x_min":0,"x_max":223.21875,"ha":332,"o":"m 108 675 l 108 -36 b 0 -199 108 -93 108 -100 l 69 -281 b 223 -43 213 -151 223 -139 l 223 675 l 108 675 m 223 783 l 223 951 l 108 951 l 108 783 l 223 783 "},"Z":{"x_min":95.28125,"x_max":700.96875,"ha":806,"o":"m 691 821 l 691 924 l 103 924 l 103 821 l 562 821 l 95 102 l 95 0 l 700 0 l 700 102 l 223 102 l 691 821 "},"u":{"x_min":102.078125,"x_max":616.578125,"ha":740,"o":"m 102 675 l 102 158 b 246 -14 102 53 140 -14 b 513 58 325 -14 439 22 l 524 0 l 616 0 l 616 675 l 502 675 l 502 165 b 280 97 431 127 329 97 b 216 159 238 97 216 115 l 216 675 l 102 675 "},"1":{"x_min":13.609375,"x_max":353.890625,"ha":486,"o":"m 239 763 l 239 0 l 353 0 l 353 896 l 251 896 l 13 756 l 63 663 l 239 763 "},"›":{"x_min":88.46875,"x_max":340.28125,"ha":403,"o":"m 340 338 l 167 606 l 88 553 l 227 338 l 88 122 l 167 70 l 340 338 "},"k":{"x_min":108.890625,"x_max":628.828125,"ha":672,"o":"m 223 0 l 223 968 l 108 951 l 108 0 l 223 0 m 485 675 l 251 340 l 494 0 l 628 0 l 381 340 l 617 675 l 485 675 "},"€":{"x_min":47.640625,"x_max":677.828125,"ha":754,"o":"m 47 535 l 166 535 l 166 384 l 47 384 l 47 308 l 166 308 l 166 258 b 476 -13 166 83 254 -13 b 677 8 544 -13 612 -6 l 665 108 b 480 91 596 95 534 91 b 280 262 332 91 280 133 l 280 308 l 578 308 l 578 384 l 280 384 l 280 535 l 578 535 l 578 612 l 280 612 l 280 634 b 480 805 280 763 332 805 b 665 787 534 805 594 799 l 677 886 b 476 910 612 902 544 910 b 166 638 254 910 166 813 l 166 612 l 47 612 l 47 535 "},"<":{"x_min":68.0625,"x_max":671.03125,"ha":775,"o":"m 68 374 l 68 302 l 630 -14 l 671 62 l 174 338 l 671 614 l 630 691 l 68 374 "},"t":{"x_min":34.03125,"x_max":454.609375,"ha":513,"o":"m 439 101 b 333 84 397 90 364 84 b 265 159 272 84 265 109 l 265 578 l 443 578 l 453 675 l 265 675 l 265 859 l 151 842 l 151 675 l 34 675 l 34 578 l 151 578 l 151 139 b 315 -14 151 27 204 -14 b 454 10 364 -14 413 -4 l 439 101 "},"W":{"x_min":27.21875,"x_max":1208.671875,"ha":1261,"o":"m 699 924 l 536 924 l 348 113 l 141 924 l 27 924 l 265 0 l 430 0 l 617 825 l 805 0 l 970 0 l 1208 924 l 1094 924 l 887 113 l 699 924 "},"v":{"x_min":10.890625,"x_max":601.609375,"ha":625,"o":"m 306 95 l 123 676 l 10 676 l 230 0 l 382 0 l 601 676 l 488 676 l 306 95 "},">":{"x_min":88.46875,"x_max":691.453125,"ha":775,"o":"m 129 691 l 88 614 l 585 338 l 88 62 l 129 -14 l 691 302 l 691 374 l 129 691 "},"s":{"x_min":81.359375,"x_max":521,"ha":610,"o":"m 521 181 b 315 388 521 316 506 340 b 202 505 203 416 202 430 b 314 589 202 566 216 589 b 497 570 368 589 442 581 l 506 666 b 318 689 451 681 382 689 b 89 508 143 689 89 632 b 269 291 89 367 104 333 b 408 177 402 258 408 249 b 285 86 408 105 390 86 b 96 113 228 86 153 97 l 81 22 b 292 -13 134 1 224 -13 b 521 181 481 -13 521 49 "},"B":{"x_min":115.546875,"x_max":709,"ha":793,"o":"m 484 0 b 709 198 620 0 709 69 l 709 309 b 575 476 709 408 654 462 b 679 630 655 506 679 559 l 679 737 b 465 924 679 859 608 924 l 115 924 l 115 0 l 484 0 m 591 208 b 468 102 591 138 551 102 l 232 102 l 232 419 l 461 419 b 591 305 551 419 591 378 l 591 208 m 562 630 b 439 521 562 563 527 521 l 232 521 l 232 821 l 458 821 b 562 734 529 821 562 793 l 562 630 "},"…":{"x_min":115.6875,"x_max":929.640625,"ha":1067,"o":"m 115 0 l 232 0 l 232 159 l 115 159 l 115 0 m 464 0 l 581 0 l 581 159 l 464 159 l 464 0 m 812 0 l 929 0 l 929 159 l 812 159 l 812 0 "},"?":{"x_min":74.859375,"x_max":559.421875,"ha":661,"o":"m 272 310 b 436 438 330 356 379 392 b 559 716 551 530 559 566 b 295 966 559 885 515 966 b 74 941 225 966 126 955 l 89 841 b 287 862 148 855 234 862 b 445 710 428 862 445 827 b 357 516 445 603 442 585 b 206 399 302 470 259 441 l 272 310 m 205 0 l 322 0 l 322 159 l 205 159 l 205 0 "},"H":{"x_min":115.6875,"x_max":751.328125,"ha":885,"o":"m 751 0 l 751 924 l 634 924 l 634 526 l 232 526 l 232 924 l 115 924 l 115 0 l 232 0 l 232 419 l 634 419 l 634 0 l 751 0 "},"c":{"x_min":68.0625,"x_max":491.359375,"ha":568,"o":"m 332 -13 b 491 6 390 -13 457 -4 l 480 104 b 334 88 428 93 381 88 b 182 227 220 88 182 122 l 182 448 b 334 587 182 553 220 587 b 480 571 381 587 428 583 l 490 669 b 332 689 455 680 390 689 b 68 444 125 689 68 599 l 68 231 b 332 -13 68 76 119 -13 "},"&":{"x_min":101.640625,"x_max":797.375,"ha":856,"o":"m 797 413 l 797 513 l 357 513 b 235 623 269 513 235 558 l 235 716 b 394 837 235 805 274 837 b 631 817 469 837 563 828 l 642 913 b 393 938 575 927 476 938 b 120 730 190 938 120 862 l 120 634 b 221 470 120 562 145 502 b 101 292 142 448 101 383 l 101 208 b 386 -13 101 61 179 -13 b 663 24 477 -13 571 -1 l 663 413 l 797 413 m 386 87 b 215 220 254 87 215 124 l 215 287 b 361 413 215 377 259 413 l 555 413 l 555 104 b 386 87 497 91 446 87 "},"−":{"x_min":81.671875,"x_max":514.5,"ha":608,"o":"m 81 338 l 514 338 l 514 434 l 81 434 l 81 338 "},"I":{"x_min":122.5,"x_max":239.5625,"ha":369,"o":"m 239 924 l 122 924 l 122 0 l 239 0 l 239 924 "},"≠":{"x_min":95.28125,"x_max":597.53125,"ha":707,"o":"m 95 424 l 348 424 l 265 263 l 95 263 l 95 177 l 221 177 l 156 49 l 227 12 l 311 177 l 597 177 l 597 263 l 355 263 l 438 424 l 597 424 l 597 510 l 481 510 l 548 639 l 477 677 l 392 510 l 95 510 l 95 424 "},"•":{"x_min":88.46875,"x_max":419.21875,"ha":518,"o":"m 88 448 b 253 280 88 355 161 280 b 419 448 344 280 419 355 b 253 616 419 541 344 616 b 88 448 161 616 88 541 "},"G":{"x_min":95.640625,"x_max":685,"ha":803,"o":"m 212 659 b 407 830 212 784 257 830 b 650 806 482 830 563 821 l 664 909 b 412 938 580 928 490 938 b 95 664 186 938 95 852 l 95 258 b 397 -13 95 87 166 -13 b 685 26 491 -13 596 0 l 685 424 l 572 424 l 572 111 b 401 94 509 98 449 94 b 212 265 246 94 212 147 l 212 659 "},"(":{"x_min":95.28125,"x_max":386.5625,"ha":422,"o":"m 304 1057 b 95 421 170 872 95 665 b 304 -214 95 177 170 -29 l 386 -158 b 209 421 257 46 209 218 b 386 1001 209 624 257 796 l 304 1057 "},"`":{"x_min":95.28125,"x_max":330.75,"ha":435,"o":"m 330 829 b 144 956 262 869 191 915 l 95 878 b 284 757 157 831 215 794 l 330 829 "},"U":{"x_min":108.890625,"x_max":751.328125,"ha":878,"o":"m 634 924 l 634 266 b 430 93 634 152 573 93 b 225 266 287 93 225 152 l 225 924 l 108 924 l 108 259 b 430 -13 108 108 194 -13 b 751 259 665 -13 751 108 l 751 924 l 634 924 "},"◊":{"x_min":47.640625,"x_max":730.921875,"ha":794,"o":"m 47 462 l 355 0 l 423 0 l 730 462 l 423 924 l 355 924 l 47 462 m 389 817 l 623 462 l 389 106 l 155 462 l 389 817 "},"F":{"x_min":115.6875,"x_max":654.703125,"ha":724,"o":"m 232 0 l 232 402 l 626 402 l 626 509 l 232 509 l 232 817 l 654 817 l 654 924 l 115 924 l 115 0 l 232 0 "},"r":{"x_min":108.890625,"x_max":412.421875,"ha":428,"o":"m 397 689 b 215 580 332 661 264 619 l 208 675 l 108 675 l 108 0 l 223 0 l 223 465 b 412 582 277 504 349 551 l 397 689 "},":":{"x_min":115.6875,"x_max":232.75,"ha":356,"o":"m 115 424 l 232 424 l 232 584 l 115 584 l 115 424 m 115 0 l 232 0 l 232 159 l 115 159 l 115 0 "},"x":{"x_min":24.5,"x_max":585.28125,"ha":622,"o":"m 145 0 l 304 251 l 465 0 l 585 0 l 366 340 l 581 676 l 462 676 l 304 427 l 147 676 l 28 676 l 242 340 l 24 0 l 145 0 "},"*":{"x_min":68.0625,"x_max":575.75,"ha":657,"o":"m 156 531 l 209 498 l 321 674 l 432 498 l 485 531 l 379 697 l 575 697 l 575 763 l 377 763 l 484 932 l 432 967 l 321 790 l 209 967 l 157 932 l 265 763 l 68 763 l 68 697 l 262 697 l 156 531 "},"†":{"x_min":68.0625,"x_max":592.078125,"ha":674,"o":"m 68 588 l 281 588 l 281 -97 l 379 -97 l 379 588 l 592 588 l 592 678 l 379 678 l 379 924 l 281 924 l 281 678 l 68 678 l 68 588 "},"V":{"x_min":24.5,"x_max":781.28125,"ha":822,"o":"m 323 0 l 481 0 l 781 924 l 668 924 l 402 104 l 137 924 l 24 924 l 323 0 "},"∞":{"x_min":81.671875,"x_max":1121.5625,"ha":1228,"o":"m 1121 383 b 880 621 1121 534 1026 621 b 601 448 752 621 672 535 b 322 621 530 535 450 621 b 81 383 176 621 81 534 b 322 147 81 231 178 147 b 601 319 450 147 530 231 b 880 147 672 231 752 147 b 1121 383 1024 147 1121 231 m 182 383 b 322 527 182 477 245 527 b 533 383 416 527 479 455 b 322 242 475 309 416 242 b 182 383 240 242 182 288 m 1020 383 b 880 242 1020 288 962 242 b 669 383 786 242 728 309 b 880 527 724 455 786 527 b 1020 383 958 527 1020 477 "},"h":{"x_min":108.890625,"x_max":623.390625,"ha":740,"o":"m 623 0 l 623 517 b 479 689 623 621 585 689 b 223 619 401 689 296 655 l 223 968 l 108 951 l 108 0 l 223 0 l 223 509 b 445 578 294 547 396 578 b 509 516 487 578 509 560 l 509 0 l 623 0 "},"0":{"x_min":95.28125,"x_max":656.0625,"ha":767,"o":"m 656 670 b 375 910 656 809 586 910 b 95 670 164 910 95 809 l 95 226 b 375 -13 95 87 164 -13 b 656 226 586 -13 656 87 l 656 670 m 541 657 l 541 238 b 375 88 541 137 500 88 b 209 238 250 88 209 137 l 209 657 b 375 807 209 759 250 807 b 541 657 500 807 541 759 "},".":{"x_min":115.6875,"x_max":232.75,"ha":356,"o":"m 115 0 l 232 0 l 232 159 l 115 159 l 115 0 "},"”":{"x_min":95.28125,"x_max":474.03125,"ha":601,"o":"m 112 792 l 152 792 l 95 652 l 148 626 l 230 792 l 230 952 l 112 952 l 112 792 m 356 792 l 396 792 l 339 652 l 392 626 l 474 792 l 474 952 l 356 952 l 356 792 "},"@":{"x_min":81.671875,"x_max":937.8125,"ha":1033,"o":"m 571 394 b 466 362 544 374 496 362 b 421 409 426 362 415 373 l 447 559 b 519 616 454 599 477 616 b 607 600 549 616 581 609 l 571 394 m 341 401 b 438 287 329 331 363 287 b 578 326 488 287 533 301 b 694 276 598 292 639 276 b 937 556 858 276 937 398 b 525 938 937 784 793 938 b 81 462 261 938 81 739 b 564 -13 81 177 253 -13 b 834 48 657 -13 756 5 l 809 117 b 567 65 729 84 656 65 b 168 462 300 65 168 224 b 525 859 168 699 323 859 b 853 553 736 859 853 738 b 696 346 853 449 815 346 b 643 355 672 346 654 351 l 694 646 b 532 685 645 668 582 685 b 368 560 432 685 385 652 l 341 401 "},"f":{"x_min":40.828125,"x_max":480.46875,"ha":490,"o":"m 480 960 b 345 979 435 974 389 979 b 157 800 223 979 157 920 l 157 676 l 40 676 l 40 578 l 157 578 l 157 0 l 272 0 l 272 578 l 451 578 l 461 676 l 272 676 l 272 789 b 360 882 272 857 289 882 b 470 870 389 882 435 877 l 480 960 "},";":{"x_min":95.28125,"x_max":230.03125,"ha":353,"o":"m 112 0 l 152 0 l 95 -140 l 148 -167 l 230 0 l 230 159 l 112 159 l 112 0 m 112 424 l 230 424 l 230 583 l 112 583 l 112 424 "},"“":{"x_min":115.96875,"x_max":493.71875,"ha":601,"o":"m 476 804 l 436 804 l 493 944 l 440 971 l 359 804 l 359 644 l 476 644 l 476 804 m 232 804 l 193 804 l 250 944 l 197 971 l 115 804 l 115 644 l 232 644 l 232 804 "},"i":{"x_min":108.890625,"x_max":223.21875,"ha":339,"o":"m 223 0 l 223 676 l 108 676 l 108 0 l 223 0 m 223 784 l 223 952 l 108 952 l 108 784 l 223 784 "},"6":{"x_min":95.25,"x_max":622,"ha":711,"o":"m 208 595 b 469 809 208 763 258 809 b 589 796 502 809 556 803 l 601 893 b 451 910 558 905 494 910 b 95 596 195 910 95 827 l 95 199 b 360 -13 95 69 164 -13 b 622 248 578 -13 622 86 l 622 292 b 389 513 622 440 562 513 b 208 481 329 513 253 498 l 208 595 m 378 412 b 509 292 477 412 509 377 l 509 216 b 360 88 509 124 477 88 b 208 216 257 88 208 117 l 208 374 b 378 412 253 394 318 412 "},"A":{"x_min":38.109375,"x_max":808.5,"ha":864,"o":"m 502 924 l 344 924 l 38 0 l 156 0 l 230 222 l 615 222 l 690 0 l 808 0 l 502 924 m 585 326 l 261 326 l 423 838 l 585 326 "},"‘":{"x_min":115.96875,"x_max":250.71875,"ha":353,"o":"m 233 804 l 193 804 l 250 944 l 197 971 l 115 804 l 115 644 l 233 644 l 233 804 "},"n":{"x_min":108.890625,"x_max":623.390625,"ha":740,"o":"m 623 0 l 623 517 b 479 690 623 622 585 690 b 212 617 400 690 285 653 l 201 676 l 108 676 l 108 0 l 223 0 l 223 510 b 445 578 294 548 396 578 b 509 516 487 578 509 560 l 509 0 l 623 0 "},"O":{"x_min":95.28125,"x_max":751.328125,"ha":864,"o":"m 751 657 b 423 938 751 812 657 938 b 95 657 189 938 95 812 l 95 266 b 423 -13 95 112 189 -13 b 751 266 657 -13 751 112 l 751 657 m 212 655 b 423 832 212 769 280 832 b 634 655 566 832 634 769 l 634 269 b 423 91 634 155 566 91 b 212 269 280 91 212 155 l 212 655 "},"≤":{"x_min":95.28125,"x_max":639.71875,"ha":750,"o":"m 95 0 l 639 0 l 639 89 l 95 89 l 95 0 m 615 650 l 575 731 l 114 497 l 114 421 l 575 185 l 615 265 l 225 460 l 615 650 "},"3":{"x_min":68.109375,"x_max":567.640625,"ha":676,"o":"m 68 13 b 279 -13 125 -5 213 -13 b 567 197 483 -13 567 52 l 567 287 b 447 452 567 387 522 430 b 551 631 532 494 551 546 l 551 713 b 292 910 551 842 484 910 b 85 885 221 910 142 899 l 98 787 b 289 807 160 799 228 807 b 436 696 398 807 436 780 l 436 616 b 300 501 436 542 407 501 l 129 501 l 129 398 l 315 398 b 453 277 404 398 453 367 l 453 208 b 279 88 453 119 407 88 b 80 111 212 88 145 95 l 68 13 "},"]":{"x_min":27.21875,"x_max":291.28125,"ha":429,"o":"m 291 -174 l 291 1096 l 27 1096 l 27 996 l 176 996 l 176 -74 l 27 -74 l 27 -174 l 291 -174 "},"m":{"x_min":108.890625,"x_max":1023.5625,"ha":1149,"o":"m 1023 0 l 1023 517 b 879 690 1023 622 985 690 b 605 617 796 690 684 656 b 479 690 586 663 547 690 b 212 617 400 690 285 653 l 201 676 l 108 676 l 108 0 l 223 0 l 223 510 b 445 578 294 548 396 578 b 509 516 487 578 509 560 l 509 0 l 623 0 l 623 510 b 845 578 694 548 790 578 b 909 516 887 578 909 560 l 909 0 l 1023 0 "},"9":{"x_min":75,"x_max":601.75,"ha":711,"o":"m 488 301 b 227 87 488 133 438 87 b 106 99 194 87 138 93 l 95 2 b 245 -13 138 -8 202 -13 b 601 299 501 -13 601 69 l 601 692 b 336 910 601 823 532 910 b 75 648 122 910 75 810 l 75 603 b 307 383 75 456 134 383 b 488 415 367 383 443 398 l 488 301 m 318 484 b 187 603 219 484 187 519 l 187 680 b 336 807 187 771 219 807 b 488 680 439 807 488 778 l 488 521 b 318 484 443 502 378 484 "},"l":{"x_min":108.890625,"x_max":223.21875,"ha":339,"o":"m 223 0 l 223 968 l 108 951 l 108 0 l 223 0 "},"8":{"x_min":88.46875,"x_max":651.96875,"ha":756,"o":"m 628 656 l 628 692 b 370 910 628 818 566 910 b 111 692 172 910 111 818 l 111 656 b 249 458 111 569 140 512 b 88 247 127 399 88 341 l 88 206 b 370 -13 88 51 168 -13 b 651 206 570 -13 651 51 l 651 247 b 487 458 651 341 611 399 b 628 656 598 512 628 569 m 540 242 l 540 210 b 370 86 540 116 495 86 b 200 210 243 86 200 116 l 200 242 b 370 405 200 322 232 348 b 540 242 506 348 540 322 m 223 653 l 223 698 b 370 812 223 770 255 812 b 517 698 483 812 517 770 l 517 653 b 370 505 517 583 487 553 b 223 653 253 553 223 583 "},"∂":{"x_min":81.796875,"x_max":691.890625,"ha":790,"o":"m 566 544 b 386 592 507 578 441 592 b 112 363 185 592 137 504 l 87 211 b 322 -14 63 73 111 -14 b 623 217 548 -14 597 71 l 681 558 b 397 965 724 811 632 965 b 181 908 323 965 235 940 l 213 818 b 378 862 262 843 317 862 b 574 590 549 862 605 775 l 566 544 m 387 490 b 548 442 442 490 499 472 l 509 214 b 338 86 491 110 450 86 b 200 211 210 86 182 109 l 227 370 b 387 490 243 461 273 490 "},"p":{"x_min":108.890625,"x_max":627.46875,"ha":726,"o":"m 627 482 b 434 689 627 619 564 689 b 215 614 347 689 269 659 l 205 675 l 108 675 l 108 -291 l 223 -274 l 223 6 b 412 -14 276 -4 353 -14 b 627 206 567 -14 627 72 l 627 482 m 223 506 b 411 587 272 550 345 587 b 513 482 491 587 513 552 l 513 206 b 405 88 513 124 481 88 b 223 109 359 88 284 97 l 223 506 "},"4":{"x_min":29.9375,"x_max":690.078125,"ha":746,"o":"m 690 220 l 690 320 l 563 320 l 563 896 l 409 896 l 29 335 l 29 220 l 449 220 l 449 0 l 563 0 l 563 220 l 690 220 m 142 320 l 449 778 l 449 320 l 142 320 "},"‡":{"x_min":68.0625,"x_max":592.078125,"ha":674,"o":"m 68 148 l 281 148 l 281 -97 l 379 -97 l 379 148 l 592 148 l 592 238 l 379 238 l 379 588 l 592 588 l 592 678 l 379 678 l 379 924 l 281 924 l 281 678 l 68 678 l 68 588 l 281 588 l 281 238 l 68 238 l 68 148 "},"R":{"x_min":115.6875,"x_max":815.3125,"ha":878,"o":"m 680 0 l 815 0 l 579 348 b 724 563 684 378 724 453 l 724 696 b 461 924 724 838 656 924 l 115 924 l 115 0 l 232 0 l 232 334 l 454 334 l 680 0 m 607 695 l 607 562 b 457 440 607 471 568 440 l 232 440 l 232 817 l 457 817 b 607 695 568 817 607 787 "},"√":{"x_min":88.46875,"x_max":899.703125,"ha":939,"o":"m 442 0 l 691 917 l 899 917 l 899 1013 l 604 1013 l 374 138 l 187 689 l 88 657 l 314 0 l 442 0 "},"o":{"x_min":74.859375,"x_max":613.859375,"ha":703,"o":"m 613 240 l 613 435 b 344 689 613 577 537 689 b 74 435 151 689 74 577 l 74 240 b 344 -13 74 98 151 -13 b 613 240 537 -13 613 98 m 499 440 l 499 235 b 344 87 499 137 447 87 b 189 235 240 87 189 137 l 189 440 b 344 588 189 538 240 588 b 499 440 447 588 499 538 "},"5":{"x_min":78.9375,"x_max":586.640625,"ha":689,"o":"m 112 409 b 332 405 181 408 240 408 b 472 284 445 402 472 367 l 472 223 b 306 88 472 124 442 88 b 91 112 240 88 159 95 l 78 18 b 307 -13 148 -5 239 -13 b 586 216 524 -13 586 69 l 586 297 b 372 505 586 417 534 498 b 227 509 311 508 284 508 l 227 793 l 575 793 l 575 896 l 112 896 l 112 409 "}}}
